PathFileType	4	(X/Y/Z)	C:/Users/beibeiliu/ov580/test_trc/User3\sequence.4_training_dense_right.trc
DataRate	CameraRate	NumFrames	NumMarkers	Units	OrigDataRate	OrigDataStartFrame	OrigNumFrames
120	120	20	19	mm	120	62	92
Frame#	Time	ThumbCMC			ThumbMCP			ThumbIP			ThumbTip			IndexMCP			IndexPIP			IndexTip			MiddleMCP			MiddlePIP			MiddleTip			RingMCP			RingPIP			RingTip			PinkyMCP			PinkyPIP			PinkyTip			BackHand1			BackHand2			BackHand3	
		X0	Y0	Z0	X1	Y1	Z1	X2	Y2	Z2	X3	Y3	Z3	X4	Y4	Z4	X5	Y5	Z5	X6	Y6	Z6	X7	Y7	Z7	X8	Y8	Z8	X9	Y9	Z9	X10	Y10	Z10	X11	Y11	Z11	X12	Y12	Z12	X13	Y13	Z13	X14	Y14	Z14	X15	Y15	Z15	X16	Y16	Z16	X17	Y17	Z17	X18	Y18	Z18	
61	0.508333	89.2119	-9.73998	7.7204	76.2862	-40.3501	-6.50547	84.5289	-67.1758	-25.024	109.1	-77.7003	-27.0199	105.007	-19.1756	-62.3412	103.308	-35.9009	-87.026	97.1685	-46.8063	-105.415	122.445	-46.1889	-51.0882	102.158	-70.6622	-36.4688	104.309	-43.7128	-7.77888	131.389	-54.5679	-38.0534	118.091	-72.9815	-19.7132	115.052	-49.0053	5.69304	146.713	-58.5838	-27.1713	131.512	-71.8705	-11.2593	123.528	-45.1282	8.85497	150.916	-6.69086	-14.005	151.638	7.74145	15.679	117.711	14.1051	-5.67218	
62	0.516667	92.2082	-0.317812	7.41495	82.4193	-30.5354	-10.0719	89.3978	-56.8848	-31.7504	111.494	-69.9075	-34.6065	111.507	-7.12471	-63.7972	107.147	-18.4427	-86.614	99.8854	-28.2544	-111.49	123.327	-38.5662	-58.1332	105.202	-59.6285	-42.9074	110.633	-35.132	-9.75533	138.001	-44.4027	-40.5558	117.195	-62.7508	-22.4132	116.73	-38.0365	3.28652	153.575	-49.7016	-29.4295	130.945	-62.2916	-16.0922	125.401	-38.6945	3.15812	154.283	3.22244	-12.3805	157.901	14.2149	18.2094	124.482	19.8756	-5.62001	
63	0.525	94.7112	12.8486	5.70764	84.5339	-13.9611	-15.0012	85.9422	-36.4248	-37.4617	111.146	-52.3596	-45.9776	111.169	16.6539	-66.1991	99.0918	12.9417	-92.6647	98.1993	2.14828	-115.991	122.871	-14.0045	-62.2854	105.892	-38.6386	-53.8734	112.761	-21.2872	-14.1269	137.658	-24.352	-48.1133	121.262	-45.9674	-33.3779	118.703	-29.4487	-5.14348	152.449	-31.2909	-38.8217	132.047	-45.4695	-30.1222	127.007	-30.4199	-2.52195	157.289	18.5701	-18.2689	159.551	24.905	17.1728	125.281	35.4845	-4.57211	
64	0.533333	99.2743	26.2028	12.3696	82.8148	2.52747	-18.0306	81.5602	-16.6307	-39.0406	105.474	-30.0236	-53.9858	103.358	43.7466	-62.2014	90.9818	41.4177	-91.3273	86.1827	35.7966	-114.155	114.333	11.9247	-67.0404	102.479	-16.9967	-60.2669	107.144	-7.7355	-21.7067	132.254	-2.83137	-56.68	117.546	-29.0566	-40.9686	116.518	-17.1844	-13.6032	146.75	-10.5559	-49.6345	128.634	-28.9982	-38.629	129.464	-19.7247	-9.75674	158.083	32.2295	-21.6274	163.99	35.2051	12.7134	130.072	48.6019	-0.754288	
65	0.541667	102.787	32.5453	11.6094	88.5475	11.472	-14.6115	82.729	-4.38114	-39.9964	101.188	-17.0426	-56.2388	99.4945	56.5982	-58.9035	85.9345	55.3263	-86.3881	73.6334	53.4522	-105.278	112.331	23.6945	-72.1364	98.7273	-2.68125	-65.3411	107.229	-0.130925	-27.4337	125.492	11.0774	-62.543	113.652	-14.0605	-50.4031	118.295	-6.07172	-17.9034	143.002	2.88644	-58.2765	129.187	-18.0714	-45.2118	131.692	-9.71723	-19.6747	158.905	43.3293	-23.3173	166.289	42.3878	8.89315	134.728	58.3707	-4.08359	
66	0.55	112.613	29.8105	13.1102	98.3497	5.66258	-8.67315	90.4091	-11.7988	-36.846	108.854	-21.1141	-53.3832	93.4792	46.72	-59.6363	74.7159	44.514	-74.6486	57.2389	38.6874	-96.83	111.649	22.4276	-68.3737	101.275	-8.82678	-62.2346	119.603	-1.80465	-25.6993	128.177	6.26431	-65.7471	122.53	-19.1543	-48.0027	128.951	-8.53026	-19.7899	148.001	3.88665	-62.7467	136.794	-17.8114	-53.0578	144.762	-10.4431	-21.8828	161.959	45.9806	-34.1179	174.207	46.5452	-2.8663	138.488	57.3193	-4.55385	
67	0.558333	121.363	24.9312	14.6086	108.522	-2.48265	-5.9921	105.073	-21.0657	-31.8049	117.525	-33.3251	-48.629	95.8006	31.123	-57.9984	75.0999	22.7243	-71.7185	61.122	14.5843	-90.6912	111.926	7.24692	-66.8066	110.243	-21.3178	-58.2302	128.477	-10.6932	-25.0606	137.784	0.125799	-63.6225	131.692	-27.1095	-48.5151	141.14	-13.5557	-19.2177	157.943	-4.13983	-63.3166	144.267	-26.0277	-48.1635	153.606	-16.1774	-22.7728	165.084	42.0671	-34.3514	182.976	47.7444	-7.07298	139.689	53.8663	-9.57364	
68	0.566667	128.092	24.0381	12.3157	115.877	-2.42352	-5.71807	106.374	-25.9061	-29.6194	122.414	-36.888	-49.6232	104.393	29.1481	-59.1134	86.6781	20.916	-76.0553	67.4555	12.3434	-91.131	121.63	3.42423	-71.3256	117.308	-23.5692	-59.4663	134.638	-11.8464	-25.5896	144.487	-4.7077	-65.5218	137.035	-28.8115	-48.4185	145.379	-12.6484	-17.5458	162.174	-6.61295	-63.8756	151.773	-26.9539	-53.4563	156.21	-15.7268	-22.4769	169.48	41.0964	-35.6131	185.848	46.2489	-11.7639	149.504	51.5599	-14.2347	
69	0.575	133.309	28.8771	2.55358	116.611	4.72063	-12.7575	107.339	-16.66	-38.7979	120.498	-30.8541	-52.6483	111.289	39.3323	-68.6103	96.4126	34.1378	-86.3503	81.7084	28.3226	-104.584	128.105	11.4168	-74.6101	115.935	-16.5558	-63.7942	136.292	-8.74599	-30.0306	149.119	-0.754436	-67.5377	135.927	-24.2675	-52.8049	148.364	-12.7834	-21.3242	162.952	-7.03486	-64.7831	154.708	-28.9756	-53.3379	157.139	-18.6125	-25.2118	179.839	37.7749	-40.0512	190.566	44.4389	-7.2183	155.954	53.7905	-11.9241	
70	0.583333	138.398	34.9145	-0.551343	116.653	15.7825	-23.0502	102.655	-1.61483	-47.0892	116.441	-21.2606	-62.1204	137.366	46.4038	-79.8848	123.598	48.2241	-99.7374	109.468	46.5514	-123.914	142.738	13.6442	-80.1243	116.888	-4.81451	-72.3434	131.392	-3.86313	-35.1724	151.866	-0.435419	-68.8292	131.22	-19.7353	-56.3118	138.049	-8.06226	-24.1976	163.744	-12.6104	-65.0432	144.653	-26.9815	-49.9573	147.19	-15.8956	-25.9389	189.998	24.5618	-38.2814	198.125	27.9993	-8.06913	172.324	50.7128	-17.4861	
71	0.591667	148.534	41.327	-7.64338	121.619	33.0962	-30.2383	113.34	13.4604	-56.2126	118.55	-11.0794	-68.7615	165.171	45.8122	-81.8749	158.482	45.6028	-108.53	151.025	49.8656	-129.247	151.948	14.8971	-83.8855	124.135	4.11799	-77.5286	134.668	9.84133	-36.0652	156.161	-4.47413	-70.4748	132.767	-15.6675	-57.8973	139.586	-0.341509	-25.1582	165.608	-20.1929	-60.9969	139.69	-22.0965	-54.2579	144.384	-12.6002	-27.8069	200.561	9.64423	-31.8333	202.676	12.1598	1.91828	185.843	40.3703	-13.5007	
72	0.6	165.152	45.338	-9.43033	141.46	42.2859	-41.4183	130.228	26.0142	-65.6205	129.573	0.404855	-72.9088	193.017	34.2441	-80.4286	191.67	36.4223	-111.147	189.863	36.4991	-134.872	170.37	10.0468	-84.4808	138.655	7.49734	-80.2889	143.863	15.9348	-43.1763	167.81	-6.48627	-70.8359	136.718	-3.42301	-61.8178	145.245	3.47908	-29.5916	169.105	-22.0913	-59.9876	141.59	-14.1747	-53.9484	148.997	-6.21896	-25.2135	205.881	-3.5783	-27.0796	205.221	-2.34139	1.57007	200.86	32.8632	-17.4751	
73	0.608333	186.569	44.9683	-17.6936	166.329	50.8041	-48.9416	154.919	33.1903	-72.6862	148.818	9.43663	-80.469	220.655	21.8311	-79.9442	224.297	25.1971	-106.59	227.36	21.4217	-128.98	192.246	4.54141	-84.8719	162.655	11.377	-87.973	161.588	20.0085	-48.8385	182.778	-9.5658	-71.2791	150.361	-1.46422	-67.8704	156.02	9.9865	-36.2996	175.012	-25.7757	-59.8273	149.792	-12.3433	-58.3634	156.702	0.515783	-29.4122	210.642	-12.2953	-24.4499	205.868	-7.74358	8.86335	215.271	22.7554	-11.4673	
74	0.616667	202.668	42.3903	-18.4619	190.21	45.5399	-53.5506	178.645	34.1794	-77.6316	168.349	10.178	-84.2163	240.594	9.1579	-75.3083	249.333	7.68223	-102.134	252.542	0.900665	-123.152	209.945	-2.22855	-83.8145	181.139	9.67814	-89.3401	176.694	18.296	-53.1821	196.204	-15.0358	-71.2325	166.161	2.34445	-70.8853	167.618	12.6294	-43.2029	184.393	-27.3694	-61.245	162.618	-6.85181	-63.8839	168.646	4.36513	-36.5674	215.194	-22.5283	-20.9264	207.226	-11.8836	12.0349	227.964	12.4294	-11.3826	
75	0.625	215.91	38.017	-19.2526	206.576	44.4512	-53.5049	195.954	33.4978	-80.5343	182.645	6.9058	-91.9069	254.628	-3.10356	-71.6644	264.006	-6.17367	-95.4533	272.282	-10.1672	-117.789	225.501	-9.57514	-78.7497	198.073	9.15886	-90.8723	192.013	16.8701	-50.8697	202.995	-18.7542	-73.8225	182.595	0.0899083	-77.7633	180.268	11.9526	-45.1209	192.555	-31.2278	-60.5157	173.804	-11.937	-69.56	174.238	3.31531	-40.1559	218.424	-28.7218	-17.1102	208.077	-15.9217	12.7592	236.846	5.48051	-6.87794	
76	0.633333	219.852	36.0923	-16.0289	213.716	38.3921	-55.6892	204.608	28.1742	-80.8657	192.316	5.72395	-93.8882	261.847	-5.45857	-63.1737	276.167	-4.16099	-89.2232	281.95	-12.3252	-117.435	234.399	-11.282	-78.0059	207.031	4.91914	-90.0339	199.086	16.2239	-54.0565	215.743	-20.2667	-69.2645	189.079	-0.929371	-74.9347	186.852	9.89487	-45.1677	203.301	-32.3918	-60.2878	184.902	-14.3043	-70.8582	183.591	3.02918	-42.6084	224.391	-26.6366	-11.6348	214.158	-22.2999	13.3411	237.711	4.29766	0.397003	
77	0.641667	210.479	42.1711	-15.5745	200.803	40.7311	-49.5746	197.598	31.5018	-78.9389	193.183	5.85421	-92.7273	265.146	21.1876	-67.8593	272.657	21.2698	-92.9455	277.334	16.8287	-118.521	236.652	1.84293	-78.6161	208.765	11.9758	-89.6561	194.865	13.0498	-52.0874	220.272	-14.9906	-73.3764	195.444	-1.73597	-76.3401	185.78	8.25379	-46.9982	213.857	-31.5536	-61.1358	190.168	-17.3429	-68.7393	185.07	-4.49447	-39.919	236.34	-17.1395	-15.1577	223.054	-16.0115	11.852	237.724	14.4167	-2.27473	
78	0.65	186.416	44.1954	-13.8284	174.283	40.2713	-47.8602	176.411	28.3279	-82.7382	185.784	3.90629	-91.3349	237.444	47.03	-70.459	242.806	55.4982	-99.1225	244.928	51.562	-125.804	227.29	22.2371	-79.4129	197.718	11.0108	-92.9758	183.319	9.3313	-56.3744	222.38	-0.974311	-75.136	192.511	-8.20308	-78.7979	182.134	-1.53992	-48.4511	223.621	-17.8979	-66.8932	198.967	-21.1188	-73.4734	183.808	-10.8158	-48.3673	240.52	6.45046	-17.602	229.417	4.86988	12.3725	225.855	34.802	-6.68249	
79	0.658333	163.403	34.0995	-15.6077	150.4	26.0766	-47.1209	151.019	14.9351	-72.7297	165.41	0.728698	-92.2542	196.769	60.2865	-81.4165	197.725	61.965	-109.238	191.043	62.0979	-133.334	204.151	35.8519	-86.4489	185.395	13.9699	-103.584	170.097	-3.1607	-66.6677	214.547	16.807	-78.8422	193.161	-5.386	-91.8977	179.542	-11.8427	-60.7499	227.237	-1.2139	-71.3674	206.155	-11.5713	-83.9798	186.155	-22.1782	-59.9031	227.251	27.2106	-23.101	222.668	23.3752	3.62858	200.027	45.6531	-10.5332	
80	0.666667	149.124	23.1554	-14.1106	134.219	10.7257	-45.1255	129.913	0.141427	-70.9627	134.906	-11.9298	-93.9091	168.477	49.4399	-87.4351	159.303	49.7591	-113.633	153.703	44.0762	-138.26	187.033	36.1883	-93.4227	178.989	14.6039	-117.187	163.775	-17.615	-99.9693	205.041	26.4906	-84.4826	196.641	6.63502	-107.677	180.795	-20.0994	-92.3218	220.626	13.1141	-72.7831	214.282	-5.45217	-94.8471	194.001	-26.7362	-83.544	209.544	35.9405	-30.2335	211.017	31.5804	-2.98703	180.034	44.2482	-16.424	
